# xmcd
#
# Track frame offsets: 
#        150
#        8352
#        21945
#        38060
#        50700
#        63697
#        82817
#        97942
#        113990
#        130432
#        143690
#        159385
#        174795
#        192567
#        207495
#        222350
#        257422
#        260817
#        273467
#        288142
#
# Disc length: 4026 seconds
#
# Revision: 10
# Processed by: cddbd v1.5.2PL0 Copyright (c) Steve Scherf et al.
# Submitted via: ExactAudioCopy v0.99pb4
#
DISCID=1e0fb814
DTITLE=Blues Brothers - The Definitive Collection
DYEAR=1992
DGENRE=Blues
TTITLE0=Opening: I Can't Turn You Loose
TTITLE1=Hey Bartender
TTITLE2=Messin' With The Kid
TTITLE3=(I Got Everything I Need) Almost
TTITLE4=Rubber Biscuit
TTITLE5=I Don't Know
TTITLE6=Soul Man
TTITLE7=Who's Making Love
TTITLE8=Do You Love Me/Mother Popcorn (You Got To Have A Mother For Me
TTITLE8=)
TTITLE9=Guilty
TTITLE10=Riot In Cell Block Number Nine
TTITLE11=From The Bottom
TTITLE12=Going Back To Miami
TTITLE13=Everybody Needs Somebody To Love
TTITLE14=Expressway To Your Heart
TTITLE15=Sweet Home Chicago
TTITLE16=Closing: I Can't Turn You Loose
TTITLE17=Shake Your Tailfeather (featuring Ray Charles)
TTITLE18=Think (featuring Aretha Franklin)
TTITLE19=Gimme Some Lovin'
EXTD=Atlantic 7-82428-21992 Compilation YEAR: 1992
EXTT0=(Otis Redding)
EXTT1=(Floyd Dickson)
EXTT2=(Mel London)
EXTT3=(Don Walsh)
EXTT4=(C. Johnson)
EXTT5=(Willie Mabon)
EXTT6=(David Porter and Issac Hayes)
EXTT7=(Banks, Crutcher, Davis and Jackson)
EXTT8=(Berry Gordy, Jr.) - (James Brown and Alfred Ellis)
EXTT9=(Randy Newman)
EXTT10=(Jerry Leiber and Mike Stoller)
EXTT11=(Sonny Boy Williamson)
EXTT12=(Wayne Cochran)
EXTT13=(Wexler, Berns and Burke)
EXTT14=(Gamble and Huff)
EXTT15=(Woody Payne)
EXTT16=(Otis Redding)
EXTT17=(O.Hayes, A. Williams and V. Rice]\nRay Charles - lead vocal,\nJo
EXTT17=liet Jake Blues and Elwood Blues - background vocals
EXTT18=(Ted White and Aretha Franklin]\nAretha Franklin - lead vocal
EXTT19=(Steve Winwood, Muff Winwood and Spencer Davis)
PLAYORDER=
